<svg width="81" height="70" viewBox="0 0 81 70" fill="none" xmlns="http://www.w3.org/2000/svg">
<path fill-rule="evenodd" clip-rule="evenodd" d="M61.1462 30.6612C73.0638 43.6332 78.0303 58.6554 79.5194 69.3238L80.5098 69.1855C78.9988 58.3607 73.9652 43.1362 61.8826 29.9847C49.9545 17.0013 31.1872 6.0723 2.25363 3.36967L4.77592 1.24147C4.98697 1.0634 5.0137 0.747944 4.83563 0.536891C4.65755 0.325837 4.3421 0.299105 4.13105 0.477183L0.691746 3.37911C0.48069 3.55719 0.453955 3.87264 0.632033 4.08369L3.53396 7.523C3.71204 7.73405 4.02749 7.76078 4.23855 7.58271C4.4496 7.40463 4.47633 7.08918 4.29825 6.87812L2.17957 4.3671C30.8764 7.05158 49.4019 17.8779 61.1462 30.6612Z" fill="white"/>
</svg>
